<svg xmlns="http://www.w3.org/2000/svg" xmlns:xlink="http://www.w3.org/1999/xlink" viewBox="0 0 720 357">
  <defs>
    <linearGradient id="hero-home-illustration-b" x1="100%" x2="0%" y1="50%" y2="50%">
      <stop offset="0%" stop-color="#FFF" stop-opacity="0"/>
      <stop offset="100%"/>
    </linearGradient>
    <path id="hero-home-illustration-c" d="M30,5.68434189e-14 L462,5.68434189e-14 C478.568542,5.3799827e-14 492,13.4314575 492,30 C492,46.5685425 478.568542,60 462,60 L30,60 C13.4314575,60 2.02906125e-15,46.5685425 0,30 C-2.02906125e-15,13.4314575 13.4314575,5.98870107e-14 30,5.68434189e-14 Z"/>
    <pattern id="hero-home-illustration-d" width="258" height="258" x="-258" y="-258" patternUnits="userSpaceOnUse">
      <use xlink:href="#hero-home-illustration-a"/>
    </pattern>
    <path id="hero-home-illustration-f" d="M30,5.68434189e-14 L462,5.68434189e-14 C478.568542,5.3799827e-14 492,13.4314575 492,30 C492,46.5685425 478.568542,60 462,60 L30,60 C13.4314575,60 2.02906125e-15,46.5685425 0,30 C-2.02906125e-15,13.4314575 13.4314575,5.98870107e-14 30,5.68434189e-14 Z"/>
    <linearGradient id="hero-home-illustration-h" x1="50%" x2="50%" y1="0%" y2="100%">
      <stop offset="0%" stop-color="#1DA2CD"/>
      <stop offset="100%" stop-color="#0B63C7"/>
    </linearGradient>
    <linearGradient id="hero-home-illustration-i" x1="50%" x2="50%" y1="0%" y2="100%">
      <stop offset="0%" stop-color="#0B63C7"/>
      <stop offset="100%" stop-color="#1F5BB6"/>
    </linearGradient>
    <path id="hero-home-illustration-j" d="M0.0588321058,62.5158405 L0.0588338428,7.51661342 C0.0588338428,5.93519577 1.02588297,4.5146186 2.49715721,3.9347618 C7.58807163,1.92833683 14.7778027,0.92512434 24.0663505,0.92512434 C33.3549007,0.92512434 40.5446319,1.92833733 45.6355442,3.93476332 L45.635543,3.93476649 C47.106816,4.51462334 48.0738642,5.93519959 48.0738642,7.51661611 L48.0738638,62.5158371 C48.0738638,63.6391418 47.3906687,64.6495265 46.3481993,65.0679413 C40.2854524,67.501339 32.8581687,68.7180379 24.0663481,68.7180379 C15.2745325,68.7180379 7.84725222,67.5013404 1.78450722,65.0679454 L1.78450364,65.0679543 C0.742030028,64.6495382 0.0588321058,63.6391496 0.0588321058,62.5158405 Z"/>
  </defs>
  <g fill="none" fill-rule="evenodd">
    <g transform="translate(0 154)">
      <g opacity=".2">
        <path fill="url(#hero-home-illustration-b)" d="M30,5.68434189e-14 L462,5.68434189e-14 C478.568542,5.3799827e-14 492,13.4314575 492,30 C492,46.5685425 478.568542,60 462,60 L30,60 C13.4314575,60 2.02906125e-15,46.5685425 0,30 C-2.02906125e-15,13.4314575 13.4314575,5.98870107e-14 30,5.68434189e-14 Z"/>
        <mask id="hero-home-illustration-e" fill="#fff">
          <use xlink:href="#hero-home-illustration-c"/>
        </mask>
        <path fill="url(#hero-home-illustration-d)" d="M30,5.68434189e-14 L462,5.68434189e-14 C478.568542,5.3799827e-14 492,13.4314575 492,30 C492,46.5685425 478.568542,60 462,60 L30,60 C13.4314575,60 2.02906125e-15,46.5685425 0,30 C-2.02906125e-15,13.4314575 13.4314575,5.98870107e-14 30,5.68434189e-14 Z" mask="url(#hero-home-illustration-e)"/>
        <mask id="hero-home-illustration-g" fill="#fff">
          <use xlink:href="#hero-home-illustration-f"/>
        </mask>
        <path fill="#76CCA5" d="M30,5.68434189e-14 L462,5.68434189e-14 C478.568542,5.3799827e-14 492,13.4314575 492,30 C492,46.5685425 478.568542,60 462,60 L30,60 C13.4314575,60 2.02906125e-15,46.5685425 0,30 C-2.02906125e-15,13.4314575 13.4314575,5.98870107e-14 30,5.68434189e-14 Z" mask="url(#hero-home-illustration-g)"/>
      </g>
      <path fill="#76CCA5" fill-rule="nonzero" d="M30,60 C13.4314575,60 0,46.5685425 0,30 C0,13.4314575 13.4314575,5.68434189e-14 30,5.68434189e-14 C46.5685425,5.68434189e-14 60,13.4314575 60,30 C60,46.5685425 46.5685425,60 30,60 Z M30,56 C44.3594035,56 56,44.3594035 56,30 C56,15.6405965 44.3594035,4 30,4 C15.6405965,4 4,15.6405965 4,30 C4,44.3594035 15.6405965,56 30,56 Z" opacity=".8"/>
    </g>
    <g transform="translate(201)">
      <rect width="519" height="26" y="331" fill="#222E45" opacity=".196" rx="12.988"/>
      <rect width="385.402" height="249.297" x="66.679" fill="url(#hero-home-illustration-h)" opacity=".861" rx="13.628"/>
      <rect width="273" height="20.5" x="123" y="246" fill="#222A45" opacity=".196" rx="10.25"/>
      <path fill="#286BD0" d="M4.0593928,332.102372 L515.452396,332.102372 L519,336.95742 L519,339.122076 C519,342.871747 518.568749,344.439035 517.758951,345.953227 C516.949152,347.467418 515.760806,348.655765 514.246614,349.465563 C512.732423,350.275362 511.165135,350.706612 507.415464,350.706612 L12.699161,350.706612 C8.81194035,350.706612 7.26757719,350.275362 5.75338562,349.465563 C4.23919405,348.655765 3.05084765,347.467418 2.24104913,345.953227 C1.43125062,344.439035 1,342.894672 1,339.007451 L1,336.660853 L4.0593928,332.102372 Z"/>
      <path fill="url(#hero-home-illustration-i)" d="M136.076555,243.355157 L136.076555,249.29682 L383.923445,249.29682 L383.923445,244.513163 L438.700012,244.769093 C446.228525,244.804268 454.093701,247.262766 456.267374,250.260302 L518.101889,335.437754 C520.275562,338.43529 515.868307,344.03686 505.530094,344.072035 L13.731173,345.745354 C3.39296026,345.780529 -0.599999578,338.544141 1.57367348,335.437754 L62.9938934,248.656694 C65.1675665,245.550308 73.0327424,243.060599 80.5612556,243.095775 L136.076555,243.355157 Z"/>
      <path fill="#1B54AA" d="M198.070339,308.830389 L318.577879,308.830389 C321.556971,308.830389 324.862545,311.606856 325.961084,315.031802 L333.167563,333.636042 C334.266103,337.060988 332.382524,339.837456 328.960472,339.837456 L187.687745,339.837456 C184.265694,339.837456 182.382115,337.060988 183.480655,333.636042 L190.687134,315.031802 C191.785673,311.606856 195.091247,308.830389 198.070339,308.830389 Z" opacity=".727"/>
    </g>
    <g transform="translate(91 46)">
      <path fill="#222A45" d="M78.5995424,235 C96.7187876,235 112.903846,231.639866 112.903846,222.723562 C112.903846,213.807258 96.7187876,213.807258 78.5995424,213.807258 C70.0303605,213.807258 57.3436861,210.730425 42.9851123,210.844201 C26.9829676,210.971 17.0778979,210.421212 12.3751335,219.852273 C9.55074667,225.51638 25.9719456,226.55532 45.772452,227.310629 C58.9409129,227.812952 71.3623557,235 78.5995424,235 Z" opacity=".196"/>
      <g transform="translate(54.808 159.229)">
        <path fill="#FFF" d="M0.0588321058,62.5158405 L0.0588338428,7.51661342 C0.0588338428,5.93519577 1.02588297,4.5146186 2.49715721,3.9347618 C7.58807163,1.92833683 14.7778027,0.92512434 24.0663505,0.92512434 C33.3549007,0.92512434 40.5446319,1.92833733 45.6355442,3.93476332 L45.635543,3.93476649 C47.106816,4.51462334 48.0738642,5.93519959 48.0738642,7.51661611 L48.0738638,62.5158371 C48.0738638,63.6391418 47.3906687,64.6495265 46.3481993,65.0679413 C40.2854524,67.501339 32.8581687,68.7180379 24.0663481,68.7180379 C15.2745325,68.7180379 7.84725222,67.5013404 1.78450722,65.0679454 L1.78450364,65.0679543 C0.742030028,64.6495382 0.0588321058,63.6391496 0.0588321058,62.5158405 Z"/>
        <mask id="hero-home-illustration-k" fill="#fff">
          <use xlink:href="#hero-home-illustration-j"/>
        </mask>
        <path fill="#000" d="M37.2692308,67.8212702 L44.576333,67.8212702 C45.7913594,67.8212702 46.776333,66.8362966 46.776333,65.6212702 C46.776333,65.6197605 46.7763315,65.6182509 46.7763284,65.6167412 L46.6672431,12.6271212 C46.6628723,10.5039238 44.940453,8.78504673 42.8172512,8.78504673 L41.6612077,8.78504673 C39.5496567,8.78504673 37.8321223,10.485802 37.8113931,12.5972512 L37.2692308,67.8212702 Z" mask="url(#hero-home-illustration-k)" opacity=".1"/>
      </g>
      <path stroke="#535461" stroke-width="1.1" d="M80.6440632,168.858278 C77.3435293,150.486559 69.7366547,123.862661 52.33354,105.653511 C40.1662323,92.9261746 32.1752708,76.7616886 30.0596939,59.2684643 C29.0707317,50.9664661 28.8432421,42.5911446 29.3800785,34.2475531"/>
      <path fill="#76CCA5" d="M11.22229 15.0412447C13.2063285 21.0370391 29.7911362 34.8075999 29.7911362 34.8075999 29.7911362 34.8075999 34.8718092 13.8278101 32.8877708 7.83750639 30.9036081 1.84395882 24.4451435-1.40338883 18.4623862.584352349 12.479629 2.57209353 9.23812751 9.04220643 11.22229 15.0357541L11.22229 15.0412447zM4.30555925 54.1841185C9.23825156 58.1373896 30.6132516 60.6740718 30.6132516 60.6740718 30.6132516 60.6740718 23.4882516 40.2982541 18.5555592 36.3504737 13.6382867 32.3992505 6.454717 33.1895778 2.51060732 38.115719-1.43350235 43.0418603-.644597948 50.238386 4.27267463 54.1896092L4.30555925 54.1841185zM23.8719054 110.655497C30.1090208 111.577927 49.8562323 102.968581 49.8562323 102.968581 49.8562323 102.968581 33.4413285 88.9619223 27.2096939 88.0340017 20.9741866 87.1106345 15.1721198 91.4260917 14.250415 97.6728452 13.3287102 103.919599 17.6363982 109.73213 23.8719054 110.655497zM48.27229 150.04545C54.2627708 152.011105 75.1828669 146.84989 75.1828669 146.84989 75.1828669 146.84989 61.3658477 130.284586 55.3753669 128.318932 49.3865558 126.347869 42.9366798 129.613654 40.9691654 135.613266 39.001651 141.612878 42.261556 148.074387 48.2503669 150.04545L48.27229 150.04545zM53.7530592 54.2774597C50.8427708 59.877927 32.2848862 70.8482541 32.2848862 70.8482541 32.2848862 70.8482541 30.5968092 49.3303802 33.5070977 43.7244223 35.3888224 40.1013067 39.057037 37.7591087 43.1299606 37.5801115 47.2028841 37.4011143 51.0617426 39.4125119 53.2529414 42.8566302 55.4441402 46.3007486 55.6347841 50.6543442 53.7530592 54.2774597zM81.7104631 100.706432C77.2600785 105.181315 56.2796939 110.078978 56.2796939 110.078978 56.2796939 110.078978 61.09729 89.0387914 65.5421939 84.5639083 69.9902899 80.0911115 77.2155746 80.0775911 81.6803189 84.5337097 86.1450631 88.9898282 86.1585592 96.2281442 81.7104631 100.700941L81.7104631 100.706432zM102.701809 149.567763C99.07354 154.728978 79.2167131 163.113207 79.2167131 163.113207 79.2167131 163.113207 80.4115208 141.56239 84.0452708 136.395684 86.3344049 132.907947 90.3391103 130.947418 94.49238 131.281234 98.6456497 131.61505 102.28712 134.190136 103.991914 137.998881 105.696708 141.807627 105.193767 146.244448 102.679886 149.573254L102.701809 149.567763z"/>
      <path stroke="#535461" stroke-width="1.1" d="M76.7613285,167.445333 C76.7613285,167.445333 93.2036362,143.484119 90.3207516,120.939492 C89.050363,111.491208 90.8735221,101.88502 95.5165208,93.5630905 C97.7494458,89.6243141 100.338064,85.8988764 103.249886,82.4335344"/>
      <path fill="#76CCA5" d="M101.517963 68.2347027C100.460175 71.4851699 103.255367 82.8288615 103.255367 82.8288615 103.255367 82.8288615 112.205463 75.3286279 113.263252 72.0836513 114.322682 68.8344297 112.552248 65.3400279 109.308877 64.2786863 106.065505 63.2173447 102.577394 64.9909718 101.517963 68.2401933L101.517963 68.2347027zM85.9361362 83.0484877C86.8075785 86.3428802 95.3137323 94.3537447 95.3137323 94.3537447 95.3137323 94.3537447 98.7556554 83.1857541 97.8842131 79.8803802 97.3193041 77.7422124 95.6586613 76.0683828 93.5278328 75.4894068 91.3970044 74.9104308 89.1197137 75.5142687 87.5537943 77.0734606 85.9878749 78.6326524 85.3712271 80.9103199 85.9361362 83.0484877zM76.3228669 113.944399C78.7398862 116.354796 90.1124823 118.962857 90.1124823 118.962857 90.1124823 118.962857 87.45979 107.580731 85.03729 105.170333 82.6157338 102.759572 78.7018846 102.771863 76.2954631 105.197787 73.8890416 107.62371 73.9013107 111.544619 76.3228669 113.95538L76.3228669 113.944399zM74.3059439 138.987273C76.2845016 141.771034 87.0542131 146.26788 87.0542131 146.26788 87.0542131 146.26788 86.3581554 134.60024 84.3795977 131.816478 82.4030024 129.029699 78.5455912 128.375804 75.7638286 130.355964 72.9820659 132.336125 72.3293487 136.200493 74.3059439 138.987273zM107.437194 99.0262914C104.373444 100.530731 92.7706554 99.3227868 92.7706554 99.3227868 92.7706554 99.3227868 98.9420016 89.4066653 102.011232 87.9241886 103.993799 86.9522049 106.343379 87.1136491 108.17491 88.3477068 110.00644 89.5817645 111.041667 91.700953 110.890631 93.9069944 110.739595 96.1130358 109.425241 98.0707799 107.442675 99.0427634L107.437194 99.0262914zM104.707771 128.253044C101.331617 128.763675 90.6441169 124.162506 90.6441169 124.162506 90.6441169 124.162506 99.4955592 116.55246 102.871713 116.036338 106.245244 115.522346 109.395954 117.845391 109.909021 121.225006 110.422088 124.604621 108.103224 127.761014 104.729694 128.275006L104.707771 128.253044zM98.1582516 156.293815C94.9191169 157.391946 83.5794054 154.646619 83.5794054 154.646619 83.5794054 154.646619 91.02229 145.647436 94.2614246 144.565777 97.5002561 143.487758 100.998182 145.244177 102.074261 148.48885 103.15034 151.733523 101.397083 155.237758 98.1582516 156.315777L98.1582516 156.293815z" opacity=".5"/>
      <ellipse cx="78.923" cy="167.465" fill="#732A37" rx="21.923" ry="4.942"/>
    </g>
  </g>
</svg>