<svg xmlns="http://www.w3.org/2000/svg" width="108" height="28" viewBox="0 0 108 28">
    <g fill="none" fill-rule="evenodd">
        <path fill="#306ABD" fill-rule="nonzero" d="M72.882 4.725c0-.833.694-1.509 1.55-1.509H92.29c.855 0 1.548.676 1.548 1.509v18.038c0 .833-.693 1.508-1.548 1.508H74.43c-.855 0-1.549-.675-1.549-1.508V4.725z"/>
        <path fill="#306ABD" d="M14.217 20.853h8.746v-2.867h-5.58V7.049h-3.166zM27.391 20.853v-9.508h-3.165v9.508h3.165zM25.81 10.047c1.103 0 1.79-.73 1.79-1.643-.02-.932-.687-1.642-1.77-1.642-1.082 0-1.79.71-1.79 1.642 0 .913.687 1.643 1.749 1.643h.02zM28.86 20.853h3.166v-5.31c0-.284.02-.568.104-.77.23-.568.75-1.156 1.624-1.156 1.146 0 1.604.872 1.604 2.149v5.087h3.165V15.4c0-2.92-1.562-4.279-3.644-4.279-1.708 0-2.457.953-2.874 1.602h.021v-1.379h-3.165c.041.893 0 9.508 0 9.508zM42.989 7.05h-3.166v13.803h3.166V17.77l.79-.994 2.479 4.077h3.894l-4.165-5.902 3.644-4.015h-3.81s-2.603 3.592-2.832 4.018V7.05z"/>
        <path fill="#306ABD" d="M58.617 16.887c.041-.244.104-.713.104-1.242 0-2.458-1.25-4.953-4.54-4.953-3.52 0-5.143 2.779-5.143 5.3 0 3.116 1.978 5.063 5.435 5.063 1.374 0 2.644-.202 3.685-.628l-.416-2.087c-.854.282-1.728.424-2.811.424-1.479 0-2.77-.606-2.874-1.897l6.56.02zm-6.58-2.138c.083-.811.624-2.008 1.978-2.008 1.436 0 1.77 1.278 1.77 2.008h-3.749zM66.534 7.05v4.778h-.042c-.458-.67-1.416-1.115-2.686-1.115-2.437 0-4.581 1.947-4.56 5.272 0 3.083 1.936 5.09 4.352 5.09 1.311 0 2.56-.567 3.186-1.663h.062l.125 1.44h2.812a52.58 52.58 0 0 1-.084-2.96V7.049h-3.165zm0 9.402c0 .243-.021.487-.063.69-.187.871-.937 1.48-1.853 1.48-1.312 0-2.166-1.055-2.166-2.718 0-1.561.73-2.819 2.187-2.819.978 0 1.666.67 1.853 1.5.042.184.042.387.042.569v1.298z"/>
        <path fill="#FFF" d="M79.235 20.841v-9.507H76.07v9.507h3.165zm-1.583-10.805c1.104 0 1.791-.73 1.791-1.643-.02-.932-.687-1.642-1.77-1.642-1.082 0-1.79.71-1.79 1.642 0 .913.687 1.643 1.749 1.643h.02zM80.987 20.841h3.165v-5.309c0-.284.02-.568.104-.771.229-.568.75-1.156 1.624-1.156 1.146 0 1.604.872 1.604 2.15v5.086h3.165V15.39c0-2.92-1.562-4.28-3.644-4.28-1.708 0-2.458.954-2.874 1.603h.021v-1.38h-3.165c.041.893 0 9.508 0 9.508z"/>
    </g>
</svg>