<svg xmlns="http://www.w3.org/2000/svg" width="108" height="28" viewBox="0 0 108 28">
    <path fill="#306ABD" fill-rule="nonzero" d="M24.043 1.043c-7.181 0-13.004 5.768-13.004 12.883 0 7.116 5.823 12.883 13.004 12.883 7.183 0 13.005-5.767 13.005-12.883 0-7.115-5.822-12.883-13.005-12.883zm5.964 18.581a.815.815 0 0 1-1.115.266c-3.053-1.847-6.897-2.266-11.423-1.241a.811.811 0 0 1-.97-.605.802.802 0 0 1 .609-.961c4.954-1.122 9.203-.639 12.63 1.437a.799.799 0 0 1 .27 1.104zm1.592-3.508a1.02 1.02 0 0 1-1.395.331c-3.495-2.128-8.824-2.745-12.958-1.501a1.017 1.017 0 0 1-1.265-.67 1.004 1.004 0 0 1 .676-1.252c4.723-1.42 10.594-.732 14.608 1.711.477.291.627.91.334 1.381zm.136-3.653c-4.19-2.466-11.106-2.693-15.107-1.49a1.218 1.218 0 0 1-1.517-.803 1.204 1.204 0 0 1 .81-1.503c4.594-1.381 12.23-1.114 17.056 1.724.579.34.768 1.079.425 1.65a1.222 1.222 0 0 1-1.666.422zm14.684.473c-2.245-.53-2.644-.903-2.644-1.685 0-.74.702-1.237 1.747-1.237 1.012 0 2.015.378 3.068 1.156a.146.146 0 0 0 .11.026.145.145 0 0 0 .098-.06l1.097-1.53a.145.145 0 0 0-.028-.198c-1.253-.996-2.663-1.48-4.313-1.48-2.424 0-4.118 1.441-4.118 3.503 0 2.212 1.461 2.995 3.986 3.6 2.148.49 2.511.9 2.511 1.635 0 .814-.733 1.32-1.913 1.32-1.31 0-2.38-.439-3.576-1.463a.153.153 0 0 0-.107-.036.146.146 0 0 0-.101.051l-1.23 1.45a.146.146 0 0 0 .014.202 7.367 7.367 0 0 0 4.95 1.88c2.613 0 4.3-1.414 4.3-3.603.005-1.847-1.111-2.87-3.846-3.53l-.005-.001zm9.762-2.194c-1.132 0-2.06.442-2.828 1.347V11.07a.146.146 0 0 0-.146-.146h-2.011a.146.146 0 0 0-.146.146v11.323c0 .08.065.147.146.147h2.011c.08 0 .146-.067.146-.147V18.82c.767.85 1.696 1.267 2.828 1.267 2.104 0 4.234-1.604 4.234-4.672.004-3.068-2.127-4.673-4.233-4.673h-.001zm1.896 4.673c0 1.561-.97 2.652-2.362 2.652-1.374 0-2.412-1.14-2.412-2.652 0-1.512 1.038-2.652 2.412-2.652 1.368 0 2.362 1.115 2.362 2.652zm7.797-4.673c-2.71 0-4.833 2.067-4.833 4.706 0 2.612 2.109 4.656 4.8 4.656 2.72 0 4.848-2.06 4.848-4.689 0-2.62-2.115-4.673-4.815-4.673zm0 7.34c-1.441 0-2.528-1.147-2.528-2.668 0-1.527 1.05-2.636 2.495-2.636 1.45 0 2.544 1.148 2.544 2.67 0 1.527-1.056 2.635-2.511 2.635zm10.601-7.158h-2.213v-2.24a.146.146 0 0 0-.146-.147h-2.01a.147.147 0 0 0-.148.146v2.241h-.966a.146.146 0 0 0-.146.146v1.712c0 .08.065.146.146.146h.966v4.43c0 1.79.899 2.697 2.674 2.697.72 0 1.318-.148 1.882-.465a.142.142 0 0 0 .075-.126v-1.63a.145.145 0 0 0-.07-.124.144.144 0 0 0-.143-.006c-.387.192-.761.282-1.18.282-.645 0-.934-.291-.934-.94v-4.117h2.213c.08 0 .146-.066.146-.146V11.07a.142.142 0 0 0-.144-.146h-.002zm7.709.009v-.275c0-.81.313-1.171 1.015-1.171.42 0 .756.082 1.134.207a.147.147 0 0 0 .192-.139V7.877c0-.064-.04-.121-.104-.14a5.555 5.555 0 0 0-1.67-.238c-1.856 0-2.84 1.036-2.84 2.995v.422h-.965a.147.147 0 0 0-.148.145v1.721c0 .08.067.146.148.146h.966v6.832c0 .081.067.146.147.146h2.01a.146.146 0 0 0 .147-.146v-6.832h1.878l2.876 6.832c-.327.716-.648.86-1.086.86-.354 0-.728-.105-1.109-.313a.161.161 0 0 0-.116-.01.146.146 0 0 0-.087.078l-.682 1.481a.145.145 0 0 0 .064.19 4.262 4.262 0 0 0 2.146.544c1.484 0 2.306-.686 3.028-2.529l3.488-8.929a.141.141 0 0 0-.016-.135.144.144 0 0 0-.12-.064h-2.093c-.063 0-.12.04-.14.098l-2.144 6.067-2.348-6.07a.147.147 0 0 0-.136-.095h-3.435zm-4.47-.009h-2.01a.147.147 0 0 0-.148.146v8.69c0 .081.067.146.147.146h2.011c.081 0 .148-.065.148-.146v-8.69a.146.146 0 0 0-.148-.145zm-.993-3.957c-.797 0-1.443.64-1.443 1.428 0 .79.646 1.43 1.443 1.43.796 0 1.44-.64 1.44-1.43 0-.789-.645-1.428-1.44-1.428zm17.612 6.751a1.403 1.403 0 0 1-1.414-1.402c0-.768.627-1.409 1.422-1.409.795 0 1.415.633 1.415 1.401 0 .77-.628 1.41-1.423 1.41zm.008-2.671a1.26 1.26 0 0 0-1.273 1.27c0 .698.545 1.261 1.265 1.261.725 0 1.274-.57 1.274-1.27 0-.698-.545-1.261-1.266-1.261zm.314 1.405l.4.556h-.338l-.36-.51h-.31v.51h-.282v-1.472h.661c.347 0 .573.175.573.47.002.24-.14.388-.343.446h-.001zm-.24-.663h-.367v.465h.368c.183 0 .293-.09.293-.233 0-.151-.11-.232-.293-.232z"/>
</svg>