<svg xmlns="http://www.w3.org/2000/svg" width="87" height="28" viewBox="0 0 87 28">
    <path fill="#306ABD" fill-rule="nonzero" d="M66.913 12.283c-1.509 0-2.58 1.141-2.58 2.893v6.427H62.03V10.29h2.276v1.381c.572-.932 1.622-1.492 2.742-1.461h.828v2.072h-.963zm-6.474 3.664c0-3.374-2.483-5.896-5.843-5.896a6.126 6.126 0 0 0-4.26 1.745 5.72 5.72 0 0 0-1.72 4.15c0 3.371 2.689 5.92 6.198 5.92 1.989.037 3.872-.864 5.048-2.415l-1.672-1.184a4.124 4.124 0 0 1-3.376 1.645c-1.938-.009-3.579-1.384-3.862-3.237h9.492l-.005-.728zM51 14.909c.411-1.725 1.838-2.893 3.567-2.893 1.73 0 3.153 1.168 3.54 2.893H51zm-9.682-4.858a5.928 5.928 0 0 0-4.138 1.672V6.067h-2.304v15.536h2.276v-1.435a6.02 6.02 0 0 0 4.171 1.699c2.215.045 4.281-1.07 5.402-2.918a5.74 5.74 0 0 0 0-5.981c-1.12-1.847-3.187-2.963-5.402-2.917h-.005zm-.166 9.826c-1.642.008-3.126-.943-3.759-2.408a3.822 3.822 0 0 1 .872-4.277c1.16-1.123 2.907-1.458 4.424-.85 1.516.61 2.502 2.044 2.496 3.631a3.823 3.823 0 0 1-1.18 2.757 4.094 4.094 0 0 1-2.853 1.137v.01zm-14.759-.106c2.224 0 3.95-1.648 3.95-4.118V6.067h2.387v15.536h-2.359v-1.47a5.96 5.96 0 0 1-4.25 1.726c-3.43 0-6.07-2.416-6.07-6.08V6.067h2.43v9.6c0 2.482 1.656 4.104 3.912 4.104z"/>
</svg>