<svg xmlns="http://www.w3.org/2000/svg" width="108" height="28" viewBox="0 0 108 28">
    <g fill="#306ABD" fill-rule="nonzero">
        <path d="M19.068 8.189l-5.226 3.189 5.226 3.188-5.226 3.19-5.225-3.216 5.225-3.189-5.225-3.162L13.842 5l5.226 3.189zm-5.253 10.576l5.225-3.189 5.226 3.189-5.226 3.189-5.225-3.189zm5.253-4.225l5.226-3.189-5.226-3.162L24.266 5l5.225 3.189-5.225 3.189 5.225 3.188-5.225 3.19-5.198-3.216zM33.577 8.189h4.225c2.696 0 4.92 1.488 4.92 4.89v.717c0 3.428-2.085 4.969-4.836 4.969h-4.309V8.189zm2.363 1.913v6.723h1.807c1.528 0 2.557-.956 2.557-3.082v-.558c0-2.126-1.084-3.083-2.64-3.083H35.94zm8.033.106h1.89l.306 1.993c.361-1.355 1.278-2.072 2.946-2.072h.584v2.285h-.973c-1.918 0-2.39.638-2.39 2.445v3.933H44v-8.584h-.028zm6.198 4.465v-.24c0-2.87 1.918-4.437 4.531-4.437 2.669 0 4.53 1.568 4.53 4.438v.239c0 2.817-1.806 4.331-4.53 4.331-2.89-.026-4.53-1.514-4.53-4.331zm6.671-.027v-.212c0-1.595-.833-2.551-2.168-2.551-1.306 0-2.168.876-2.168 2.55v.213c0 1.541.834 2.418 2.168 2.418 1.335-.026 2.168-.877 2.168-2.418zm3.614-4.438h1.946l.222 1.621c.472-1.09 1.473-1.833 2.946-1.833 2.28 0 3.78 1.568 3.78 4.464v.24c0 2.816-1.667 4.304-3.78 4.304-1.417 0-2.39-.611-2.863-1.594v4.331h-2.279l.028-11.533zm6.532 4.438v-.186c0-1.7-.917-2.55-2.14-2.55-1.307 0-2.168.956-2.168 2.55v.16c0 1.514.833 2.47 2.14 2.47 1.334-.026 2.168-.85 2.168-2.444zm5.81 2.551l-.195 1.568H70.6V7.338h2.28v4.385c.5-1.116 1.5-1.727 2.918-1.727 2.14.026 3.725 1.435 3.725 4.278v.266c0 2.843-1.501 4.464-3.78 4.464-1.501-.026-2.474-.69-2.947-1.807zm4.335-2.657v-.213c0-1.568-.89-2.444-2.14-2.444-1.279 0-2.168.983-2.168 2.47v.187c0 1.594.862 2.524 2.14 2.524 1.362 0 2.168-.823 2.168-2.524zm3.391.133v-.24c0-2.87 1.918-4.437 4.531-4.437 2.669 0 4.53 1.568 4.53 4.438v.239c0 2.817-1.834 4.331-4.53 4.331-2.89-.026-4.53-1.514-4.53-4.331zm6.7-.027v-.212c0-1.595-.835-2.551-2.169-2.551-1.306 0-2.168.876-2.168 2.55v.213c0 1.541.834 2.418 2.168 2.418 1.334-.026 2.168-.877 2.168-2.418zm5.42-.319l-3.142-4.119H92.2l1.806 2.578 1.835-2.578h2.668l-3.196 4.093 3.363 4.464h-2.64l-2.057-2.843-2.002 2.843h-2.751l3.418-4.438z"/>
    </g>
</svg>